<?xml version="1.0" encoding="UTF-8"?>
<!DOCTYPE svg PUBLIC "-//W3C//DTD SVG 1.1//EN" "http://www.w3.org/Graphics/SVG/1.1/DTD/svg11.dtd">
<!-- Creator: CorelDRAW 2021 (64-Bit) -->
<svg xmlns="http://www.w3.org/2000/svg" xml:space="preserve" width="14.4in" height="14.4in" version="1.1" style="shape-rendering:geometricPrecision; text-rendering:geometricPrecision; image-rendering:optimizeQuality; fill-rule:evenodd; clip-rule:evenodd"
viewBox="0 0 14399.99 14399.99"
 xmlns:xlink="http://www.w3.org/1999/xlink"
 xmlns:xodm="http://www.corel.com/coreldraw/odm/2003">
 <defs>
  <style type="text/css">
   <![CDATA[
    .str0 {stroke:white;stroke-width:3;stroke-linecap:round;stroke-linejoin:round;stroke-miterlimit:2.61313}
    .fil1 {fill:white;fill-rule:nonzero}
    .fil0 {fill:url(#id0);fill-rule:nonzero}
   ]]>
  </style>
  <radialGradient id="id0" gradientUnits="userSpaceOnUse" gradientTransform="matrix(1 -0 -0 1 0 0)" cx="7565.26" cy="6824.01" r="203.07" fx="7565.26" fy="6824.01">
   <stop offset="0" style="stop-opacity:1; stop-color:#E48E55"/>
   <stop offset="1" style="stop-opacity:1; stop-color:#FDB61C"/>
  </radialGradient>
 </defs>
 <g id="Layer_x0020_1">
  <metadata id="CorelCorpID_0Corel-Layer"/>
  <path class="fil0" d="M11890.78 6824.01c0,2388.93 -1936.59,4325.52 -4325.52,4325.52 -2388.93,0 -4325.52,-1936.59 -4325.52,-4325.52 0,-2389.18 1936.59,-4325.52 4325.52,-4325.52 2388.93,0 4325.52,1936.33 4325.52,4325.52z"/>
  <path class="fil1 str0" d="M8907.78 5187.39c-163.86,0 -297.28,133.17 -297.28,297.37 0,164.2 133.42,297.62 297.28,297.62 164.45,0 297.62,-133.42 297.62,-297.62 0,-164.2 -133.17,-297.37 -297.62,-297.37z"/>
  <path class="fil1 str0" d="M7585.97 7618.09c-441.11,0 -799.94,-359.17 -799.94,-800.28 0,-441.11 358.84,-799.94 799.94,-799.94 441.36,0 800.28,358.84 800.28,799.94 0,441.11 -358.92,800.28 -800.28,800.28zm0 -2049.3c-688.74,0 -1248.76,560.27 -1248.76,1249.02 0,688.74 560.02,1249.02 1248.76,1249.02 689,0 1249.02,-560.27 1249.02,-1249.02 0,-688.74 -560.02,-1249.02 -1249.02,-1249.02z"/>
  <path class="fil1 str0" d="M6552.56 4759.04c-576.88,0 -1046.07,469.2 -1046.07,1046.41l0 2024.72c0,577.21 469.2,1046.41 1046.07,1046.41l2025.06 0c576.87,0 1046.41,-469.2 1046.41,-1046.41l0 -2024.72c0,-577.21 -469.54,-1046.41 -1046.41,-1046.41l-2025.06 0zm2025.06 4594.71l-2025.06 0c-839.86,0 -1523.24,-683.38 -1523.24,-1523.57l0 -2024.72c0,-840.2 683.38,-1523.57 1523.24,-1523.57l2025.06 0c840.2,0 1523.32,683.38 1523.32,1523.57l0 2024.72c0,840.2 -683.13,1523.57 -1523.32,1523.57z"/>
 </g>
</svg>
