<svg width="77" height="80" viewBox="0 0 77 80" fill="none" xmlns="http://www.w3.org/2000/svg">
<path d="M62.1141 8.65757C78.3829 22.2532 80.9803 46.9902 67.9143 63.9165C54.8464 80.8368 31.0691 83.5377 14.7994 69.948C-1.46739 56.3582 -4.06669 31.6203 8.9993 14.695C22.0624 -2.22927 45.8454 -4.93117 62.1141 8.65757Z" fill="white"/>
<path d="M61.4417 9.10804C77.7085 22.7007 80.3069 47.4406 67.24 64.3669C54.174 81.2882 30.3948 83.9892 14.1251 70.3965C-2.14267 56.8077 -4.74102 32.0698 8.32402 15.1435C21.3881 -1.7798 45.1711 -4.48168 61.4417 9.10804Z" fill="url(#paint0_radial_450_370)"/>
<path d="M53.5326 19.3543C42.7023 10.306 26.8705 12.1049 18.1694 23.371C9.47392 34.639 11.2014 51.1059 22.0326 60.1541C32.8648 69.2044 48.6966 67.4044 57.3949 56.1364C66.0923 44.8714 64.3629 28.4035 53.5326 19.3543ZM49.676 49.6901C44.4003 56.5225 34.7978 57.6136 28.2296 52.1276C21.6633 46.6387 20.6145 36.6518 25.8873 29.8183C31.1668 22.9868 40.7664 21.8938 47.3318 27.3827C53.9038 32.8717 54.9527 42.8566 49.676 49.6901Z" fill="url(#paint1_radial_450_370)"/>
<path d="M47.3321 27.3827C53.9032 32.8717 54.953 42.8566 49.6763 49.6901C44.4006 56.5225 34.7981 57.6136 28.2299 52.1276C21.6636 46.6387 20.6148 36.6518 25.8876 29.8183C31.1671 22.9859 40.7667 21.8938 47.3321 27.3827Z" fill="#FDB61C"/>
<path d="M28.7429 51.6346C22.1785 46.1506 20.9041 36.4202 26.0827 29.5877C26.0228 29.6669 25.9504 29.7362 25.8876 29.8174C20.6148 36.6509 21.6636 46.6377 28.2299 52.1267C33.5884 56.6008 40.9609 56.6988 46.3594 52.8771C40.9914 56.4285 34.0025 56.0276 28.7429 51.6346Z" fill="white"/>
<path d="M47.3313 27.3829C41.1514 22.2186 32.2846 22.884 26.8643 28.6759C32.3122 23.2255 40.922 22.6889 46.9705 27.7423C53.5397 33.2282 54.5886 43.2161 49.3138 50.0496C49.0026 50.4496 48.6742 50.8307 48.3354 51.1941C48.8037 50.7238 49.2577 50.2317 49.6755 49.6902C54.9521 42.8567 53.9033 32.8718 47.3313 27.3829Z" fill="#585A5C"/>
<defs>
<radialGradient id="paint0_radial_450_370" cx="0" cy="0" r="1" gradientUnits="userSpaceOnUse" gradientTransform="translate(50.5408 91.5667) rotate(-52.3337) scale(176.774 175.146)">
<stop stop-color="white"/>
<stop offset="1" stop-color="#B1B1B1"/>
</radialGradient>
<radialGradient id="paint1_radial_450_370" cx="0" cy="0" r="1" gradientUnits="userSpaceOnUse" gradientTransform="translate(67.1084 14.9411) rotate(-3.35509) scale(149.304 155.271)">
<stop stop-color="white"/>
<stop offset="1" stop-color="#B1B1B1"/>
</radialGradient>
</defs>
</svg>
